# xmcd
#
# Track frame offsets: 
#        150
#        16455
#        34670
#        57750
#        70065
#        86775
#        103520
#        120585
#        135888
#        151278
#        170390
#        187350
#        197375
#        209285
#        220155
#        232228
#
# Disc length: 3212 seconds
#
# Revision: 0
# Processed by: cddbd v1.5.2PL0 Copyright (c) Steve Scherf et al.
# Submitted via: ExactAudioCopy v0.99pb5
#
DISCID=db0c8a10
DTITLE=Clarence Green - Guitar Crying The Blue
DYEAR=1990
DGENRE=Blues
TTITLE0=Go For It
TTITLE1=Hard Headed Woman
TTITLE2=Guitar Crying The Blues
TTITLE3=Somebody Driving My Chine
TTITLE4=Little Man
TTITLE5=Look A Yonder Yall
TTITLE6=Please Send Me Someone To Love
TTITLE7=You Got The Best To Go
TTITLE8=Next Time You See Me
TTITLE9=Shoes At The Foot Of My Bed
TTITLE10=Someday
TTITLE11=You Don't Move Me No More
TTITLE12=Mary, My Darling
TTITLE13=House Of So Many Tears
TTITLE14=Green's Rocket
TTITLE15=Just Keep It Up
EXTD=
EXTT0=
EXTT1=
EXTT2=
EXTT3=
EXTT4=
EXTT5=
EXTT6=
EXTT7=
EXTT8=
EXTT9=
EXTT10=
EXTT11=
EXTT12=
EXTT13=
EXTT14=
EXTT15=
PLAYORDER=
